<svg width="180.635" height="49.401" viewBox="2.8500000000000005 -3.650356604612785 186.63501413157422 55.40071069508217" xmlns="http://www.w3.org/2000/svg"><g id="svgGroup" stroke-linecap="round" fill-rule="evenodd" font-size="9pt" stroke="#292929" stroke-width="1.2mm" fill="none" style="stroke:#292929;stroke-width:1.2mm;fill:none"><path d="M 127.01 15.145 L 124.605 15.145 L 124.28 13.845 Q 123.969 12.603 123.095 10.767 A 33.466 33.466 0 0 0 123.013 10.595 Q 122.084 8.674 120.241 6.785 A 20.722 20.722 0 0 0 120.185 6.728 A 12.749 12.749 0 0 0 117.873 4.89 Q 116.752 4.183 115.388 3.598 A 21.575 21.575 0 0 0 115.18 3.51 A 15.394 15.394 0 0 0 112.211 2.633 Q 110.733 2.344 109.018 2.253 A 30.775 30.775 0 0 0 107.38 2.21 A 21.575 21.575 0 0 0 103.02 2.632 A 16.533 16.533 0 0 0 98.735 4.128 Q 95.03 6.045 92.593 9.263 Q 90.155 12.48 88.953 16.478 Q 87.75 20.475 87.75 24.7 Q 87.75 28.925 88.953 32.923 Q 90.155 36.92 92.593 40.138 Q 95.03 43.355 98.703 45.273 A 16.602 16.602 0 0 0 103.753 46.915 A 22.141 22.141 0 0 0 107.315 47.19 A 22.369 22.369 0 0 0 111.667 46.788 Q 114.54 46.218 116.821 44.842 A 14.229 14.229 0 0 0 116.968 44.753 Q 120.9 42.315 122.98 38.025 A 20.454 20.454 0 0 0 124.764 32.15 A 26.979 26.979 0 0 0 125.06 28.08 L 125.06 27.105 L 108.16 27.105 L 108.16 24.96 L 127.27 24.96 L 127.27 28.145 A 25.932 25.932 0 0 1 126.128 35.915 A 23.801 23.801 0 0 1 125.06 38.708 Q 122.85 43.55 118.43 46.475 A 16.931 16.931 0 0 1 112.738 48.84 Q 110.478 49.348 107.86 49.395 A 30.015 30.015 0 0 1 107.315 49.4 A 23.921 23.921 0 0 1 102.496 48.936 A 18.312 18.312 0 0 1 97.76 47.288 Q 93.665 45.175 90.935 41.633 Q 88.205 38.09 86.84 33.703 Q 85.475 29.315 85.475 24.7 Q 85.475 20.085 86.84 15.665 Q 88.205 11.245 90.968 7.703 Q 93.73 4.16 97.825 2.08 A 18.889 18.889 0 0 1 103.475 0.293 A 25.054 25.054 0 0 1 107.38 0 Q 111.144 0 114.012 0.802 A 16.565 16.565 0 0 1 114.985 1.105 A 21.24 21.24 0 0 1 117.834 2.321 A 15.791 15.791 0 0 1 120.347 3.933 A 19.026 19.026 0 0 1 122.306 5.704 A 14.451 14.451 0 0 1 123.825 7.573 Q 125.125 9.49 125.84 11.213 A 26.752 26.752 0 0 1 126.239 12.229 Q 126.626 13.281 126.783 14.04 L 127.01 15.145 Z M 28.145 48.75 L 0 48.75 L 0 0.65 L 2.275 0.65 L 2.275 46.54 L 28.145 46.54 L 28.145 48.75 Z M 49.82 48.905 A 24.526 24.526 0 0 0 54.86 49.4 Q 60.385 49.4 64.578 47.288 Q 68.77 45.175 71.63 41.633 Q 74.49 38.09 75.92 33.703 Q 77.35 29.315 77.35 24.7 Q 77.35 20.085 75.92 15.665 Q 74.49 11.245 71.63 7.703 Q 68.77 4.16 64.578 2.08 Q 60.385 0 54.86 0 Q 49.335 0 45.143 2.08 Q 40.95 4.16 38.09 7.703 Q 35.23 11.245 33.8 15.665 Q 32.37 20.085 32.37 24.7 Q 32.37 29.315 33.8 33.703 Q 35.23 38.09 38.09 41.633 Q 40.95 45.175 45.143 47.288 A 19.02 19.02 0 0 0 49.82 48.905 Z M 153.105 48.905 A 24.526 24.526 0 0 0 158.145 49.4 Q 163.67 49.4 167.863 47.288 Q 172.055 45.175 174.915 41.633 Q 177.775 38.09 179.205 33.703 Q 180.635 29.315 180.635 24.7 Q 180.635 20.085 179.205 15.665 Q 177.775 11.245 174.915 7.703 Q 172.055 4.16 167.863 2.08 Q 163.67 0 158.145 0 Q 152.62 0 148.428 2.08 Q 144.235 4.16 141.375 7.703 Q 138.515 11.245 137.085 15.665 Q 135.655 20.085 135.655 24.7 Q 135.655 29.315 137.085 33.703 Q 138.515 38.09 141.375 41.633 Q 144.235 45.175 148.428 47.288 A 19.02 19.02 0 0 0 153.105 48.905 Z M 54.86 47.19 Q 58.63 47.19 62.238 45.793 Q 65.845 44.395 68.738 41.568 A 19.229 19.229 0 0 0 72.337 36.661 A 23.577 23.577 0 0 0 73.32 34.515 A 22.883 22.883 0 0 0 74.663 29.486 A 31.446 31.446 0 0 0 75.01 24.7 Q 75.01 19.045 73.32 14.853 A 21.781 21.781 0 0 0 70.889 10.355 A 18.532 18.532 0 0 0 68.737 7.833 Q 65.845 5.005 62.238 3.608 Q 58.63 2.21 54.86 2.21 Q 51.09 2.21 47.483 3.608 Q 43.875 5.005 40.983 7.833 Q 38.09 10.66 36.4 14.853 A 22.373 22.373 0 0 0 35.094 19.643 Q 34.71 22.005 34.71 24.7 A 31.318 31.318 0 0 0 35.075 29.602 A 22.806 22.806 0 0 0 36.4 34.515 A 21.883 21.883 0 0 0 38.756 38.933 A 18.399 18.399 0 0 0 40.982 41.568 Q 43.875 44.395 47.483 45.793 Q 51.09 47.19 54.86 47.19 Z M 158.145 47.19 Q 161.915 47.19 165.523 45.793 Q 169.13 44.395 172.023 41.568 A 19.229 19.229 0 0 0 175.622 36.661 A 23.577 23.577 0 0 0 176.605 34.515 A 22.883 22.883 0 0 0 177.948 29.486 A 31.446 31.446 0 0 0 178.295 24.7 Q 178.295 19.045 176.605 14.853 A 21.781 21.781 0 0 0 174.174 10.355 A 18.532 18.532 0 0 0 172.022 7.833 Q 169.13 5.005 165.523 3.608 Q 161.915 2.21 158.145 2.21 Q 154.375 2.21 150.768 3.608 Q 147.16 5.005 144.268 7.833 Q 141.375 10.66 139.685 14.853 A 22.373 22.373 0 0 0 138.379 19.643 Q 137.995 22.005 137.995 24.7 A 31.318 31.318 0 0 0 138.36 29.602 A 22.806 22.806 0 0 0 139.685 34.515 A 21.883 21.883 0 0 0 142.041 38.933 A 18.399 18.399 0 0 0 144.267 41.568 Q 147.16 44.395 150.768 45.793 Q 154.375 47.19 158.145 47.19 Z" vector-effect="non-scaling-stroke"/></g></svg>